<?xml version="1.0" standalone="no"?>
<!DOCTYPE svg PUBLIC "-//W3C//DTD SVG 20010904//EN"
 "http://www.w3.org/TR/2001/REC-SVG-20010904/DTD/svg10.dtd">
<svg version="1.0" xmlns="http://www.w3.org/2000/svg"
 width="355.000000pt" height="355.000000pt" viewBox="0 0 355.000000 355.000000"
 preserveAspectRatio="xMidYMid meet">
<metadata>
Created by potrace 1.11, written by Peter Selinger 2001-2013
</metadata>
<g transform="translate(0.000000,355.000000) scale(0.100000,-0.100000)"
fill="#000000" stroke="none">
<path d="M1249 3164 c-97 -17 -184 -49 -210 -77 -107 -115 -160 -443 -80 -499
10 -7 21 -29 25 -48 8 -43 42 -80 73 -80 32 0 29 -15 -17 -77 -23 -29 -38 -53
-35 -53 3 0 28 11 55 25 28 14 50 23 50 21 0 -3 -9 -28 -20 -56 -21 -53 -16
-56 28 -17 24 22 28 18 12 -16 -7 -15 -1 -11 18 11 33 37 42 40 42 11 0 -15 5
-19 19 -14 15 4 23 -4 40 -44 30 -71 29 -77 -21 -73 l-41 4 6 -33 c3 -19 8
-47 12 -64 5 -26 -2 -41 -49 -102 l-54 -72 -7 47 c-11 75 -44 132 -119 208
-97 97 -178 136 -297 142 -77 4 -91 2 -141 -22 -150 -71 -244 -277 -209 -459
13 -74 59 -170 107 -225 20 -24 37 -53 38 -65 1 -19 7 -22 39 -21 37 1 50 -12
22 -22 -24 -9 -18 -25 7 -20 60 12 108 15 108 7 0 -5 -11 -19 -25 -32 -35 -34
-31 -42 12 -24 20 8 37 14 38 13 1 -2 0 -20 -3 -40 -4 -35 -6 -37 -29 -32 -25
7 -25 6 -18 -34 6 -37 4 -42 -22 -58 -15 -10 -41 -28 -56 -41 -20 -16 -42 -23
-72 -23 -72 0 -74 -6 -95 -225 -6 -60 -12 -129 -15 -152 l-5 -43 60 0 c64 0
59 -5 73 65 3 11 5 1 6 -22 l1 -42 234 -1 c129 0 241 -3 250 -6 14 -5 16 4 17
62 l0 69 22 -60 22 -60 78 -3 c42 -2 77 0 77 4 0 3 -11 43 -24 88 l-25 81 23
94 c13 52 26 90 29 84 4 -6 9 -61 12 -124 3 -63 8 -138 11 -166 l5 -53 50 0
50 0 -3 90 c-2 50 0 90 3 90 3 0 9 -30 13 -67 11 -108 13 -113 52 -113 l34 0
0 57 c0 70 17 60 22 -12 l3 -50 200 3 c110 2 217 8 237 13 24 6 88 6 180 -1
79 -6 347 -13 597 -17 441 -6 453 -5 448 13 -3 11 -13 60 -22 111 -13 68 -21
93 -33 97 -10 2 -50 10 -90 17 -40 7 -77 18 -82 24 -6 7 -15 39 -20 71 -6 33
-13 69 -15 82 -5 19 -1 22 27 22 27 0 46 13 100 63 59 55 69 70 88 132 12 39
45 124 72 190 49 117 50 122 45 200 -10 164 -74 283 -175 322 -38 14 -75 18
-187 18 -77 0 -171 -6 -209 -13 -122 -23 -213 -83 -267 -176 l-29 -51 6 101
c6 81 3 111 -11 155 -41 125 -119 232 -216 295 -42 28 -49 29 -159 29 -109 0
-118 -2 -162 -28 -27 -16 -70 -49 -97 -73 l-49 -44 -15 38 c-14 34 -14 38 1
50 9 6 27 12 40 12 32 0 98 51 142 108 47 62 47 112 -2 214 -20 43 -57 108
-81 145 -61 95 -182 237 -212 251 -34 16 -161 14 -256 -4z m136 -389 c39 -10
77 -25 85 -33 13 -13 12 -14 -14 -8 -19 5 -32 3 -38 -6 -7 -9 -8 -8 -4 5 4 12
0 17 -14 17 -11 0 -20 -4 -20 -9 0 -5 22 -42 50 -83 54 -80 58 -92 34 -126
-36 -51 -146 -73 -199 -38 -56 37 -42 95 41 177 51 50 71 88 40 76 -8 -3 -42
-11 -76 -18 -60 -12 -83 -30 -63 -50 6 -6 20 -11 32 -12 11 -1 21 -2 21 -4 0
-1 -11 -19 -25 -39 -49 -71 -21 -147 58 -161 l42 -8 -55 -6 c-45 -5 -60 -3
-82 12 -31 22 -38 11 -10 -14 13 -12 46 -16 160 -18 131 -3 143 -1 156 17 19
25 11 32 -12 11 -15 -14 -28 -15 -78 -8 -32 5 -49 9 -36 10 56 3 110 50 118
102 5 27 0 42 -24 75 l-30 41 41 -4 c49 -4 94 21 67 37 -61 35 -58 39 25 33
44 -3 82 -7 84 -9 1 -1 -9 -18 -23 -37 -26 -33 -86 -158 -86 -177 0 -13 46
-13 72 1 28 15 32 6 14 -29 -16 -31 -69 -62 -106 -62 -15 0 -25 -11 -36 -37
-95 -231 -93 -228 -171 -217 -28 4 -34 10 -49 57 -21 66 -57 139 -97 198 -31
46 -32 46 -85 45 -45 -1 -57 3 -73 23 -10 13 -19 31 -19 42 0 17 2 17 45 -2
26 -11 61 -19 81 -17 l35 3 -32 43 c-22 31 -34 59 -37 92 -4 48 -4 49 33 64
21 9 43 16 49 15 7 0 6 -2 -1 -6 -7 -2 -13 -9 -13 -13 0 -10 60 9 110 35 17 9
30 19 27 21 -3 3 -18 -1 -34 -9 -56 -29 -77 -27 -23 2 30 17 60 29 65 27 6 -2
42 -11 80 -21z m-55 -49 c0 -3 -4 -8 -10 -11 -5 -3 -10 -1 -10 4 0 6 5 11 10
11 6 0 10 -2 10 -4z m169 -12 c35 -7 40 -20 12 -29 -29 -9 -71 4 -64 21 6 16
9 16 52 8z m-211 -21 c2 -9 -8 -13 -32 -13 -34 0 -52 11 -39 24 11 11 66 2 71
-11z m322 -364 c0 -14 -17 -10 -23 5 -4 10 -1 13 9 9 7 -3 14 -9 14 -14z m-27
-25 c3 -3 -13 -35 -36 -70 -41 -62 -43 -64 -85 -64 -24 0 -42 3 -40 8 2 4 11
28 22 55 14 34 22 44 31 37 8 -7 19 -2 35 15 22 23 59 33 73 19z m-323 -154
c8 5 18 6 23 3 4 -2 51 -5 103 -5 55 0 94 -4 94 -9 0 -24 -22 -50 -38 -45 -9
3 -61 6 -115 8 -94 2 -99 3 -108 25 -12 33 -12 35 9 24 10 -6 24 -6 32 -1z
m608 -12 c-3 -21 2 -23 43 -26 l46 -3 7 -61 c3 -33 6 -101 6 -150 l0 -89 -42
3 c-31 2 -44 8 -46 21 -3 12 3 17 19 17 22 0 22 1 7 17 -14 13 -20 14 -32 3
-19 -15 -21 -51 -4 -68 16 -16 118 -16 119 1 2 54 -3 238 -7 265 -6 31 -6 32
32 32 27 0 46 -7 66 -27 15 -14 31 -24 34 -20 4 4 -4 16 -17 27 l-24 20 45 -6
c25 -4 48 -9 51 -13 25 -25 48 -337 34 -465 -8 -77 -39 -122 -109 -158 -57
-30 -183 -36 -261 -13 -66 19 -137 63 -162 101 -22 34 -33 284 -13 284 10 0
12 21 7 93 l-6 92 97 72 c53 39 101 72 105 72 5 1 7 -9 5 -21z m-420 -73 c2
-2 -12 -27 -31 -56 -38 -60 -92 -194 -102 -251 -3 -21 -10 -38 -16 -38 -6 0
-8 -3 -5 -8 2 -4 0 -46 -5 -92 -6 -47 -11 -141 -12 -210 l-2 -125 -30 3 c-16
2 -31 4 -32 5 -1 2 4 108 11 237 7 129 12 304 12 387 -1 84 3 154 7 156 11 3
201 -4 205 -8z m70 -151 c21 -41 21 -42 2 -59 -28 -25 -25 -54 10 -95 18 -21
28 -41 24 -50 -4 -8 -13 -35 -20 -60 -24 -78 -24 -78 -40 -48 -32 60 -57 255
-36 283 4 6 17 10 29 9 12 -1 20 3 17 7 -3 5 -12 9 -19 9 -11 0 -12 6 -5 26 6
15 6 23 1 19 -5 -3 -13 5 -16 16 -7 20 -8 20 -17 6 -5 -10 -6 -22 -2 -29 5 -8
2 -9 -11 -4 -15 5 -16 4 -5 -9 11 -14 14 -13 26 2 7 10 13 14 13 8 0 -22 -27
-45 -44 -38 -14 5 -16 3 -9 -8 5 -8 9 -45 10 -84 1 -84 18 -161 50 -221 24
-44 24 -45 7 -114 -9 -39 -20 -70 -25 -70 -4 0 -8 5 -8 10 0 13 -27 13 -35 0
-3 -5 23 -24 60 -42 36 -18 65 -35 65 -38 0 -3 -22 -13 -49 -23 l-49 -17 -7
-65 c-4 -36 -5 -74 -2 -84 3 -12 -3 -27 -15 -38 -11 -10 -27 -31 -35 -46 -13
-25 -13 -31 1 -51 14 -22 13 -23 -9 -18 -32 6 -43 54 -65 292 -11 119 1 318
27 439 19 90 69 220 108 281 l28 45 12 -50 c6 -27 21 -69 33 -91z m-315 -136
c-1 -128 -8 -293 -14 -365 -6 -73 -8 -148 -5 -166 4 -20 -2 -64 -14 -112 -11
-43 -20 -87 -20 -99 0 -37 -17 -3 -45 87 -19 63 -23 92 -16 101 11 14 5 26
-13 26 -6 0 -5 -4 3 -9 7 -5 9 -11 4 -14 -14 -9 -36 15 -62 64 -14 27 -21 54
-18 64 9 22 32 14 33 -13 1 -12 -2 -19 -7 -16 -4 2 -5 12 -2 22 5 14 4 15 -8
4 -12 -11 -9 -17 16 -38 17 -13 26 -24 21 -24 -5 0 -3 -7 4 -15 7 -8 21 -15
30 -15 10 0 21 -5 23 -10 3 -6 4 -5 3 2 -1 7 -13 19 -27 26 l-24 13 30 -3 c30
-3 30 -3 32 52 1 30 6 73 12 95 8 34 9 30 4 -29 -4 -44 -2 -67 4 -63 6 4 11
43 11 88 2 71 0 80 -14 75 -12 -5 -15 -2 -10 10 3 8 6 20 6 25 0 16 18 10 23
-8 3 -10 5 23 6 74 0 50 4 98 7 107 4 11 1 16 -10 16 -9 0 -16 7 -16 16 0 10
6 14 14 11 9 -4 16 3 18 17 3 16 -1 22 -14 23 -10 1 -18 -1 -19 -5 0 -4 -2
-16 -5 -27 -2 -11 -7 -45 -10 -75 -4 -32 -13 -60 -22 -67 -9 -7 -12 -13 -6
-13 5 0 10 -21 11 -48 0 -26 4 -57 8 -68 5 -16 0 -29 -19 -47 -29 -29 -32 -43
-13 -50 9 -4 9 -6 -1 -6 -7 -1 -15 5 -18 13 -3 8 -13 12 -25 9 -10 -3 -16 -9
-14 -14 3 -4 -3 -13 -14 -18 -26 -14 -31 -14 -31 2 0 8 22 26 49 40 l48 27 6
132 c5 128 22 203 72 321 5 12 3 17 -8 17 -9 0 -26 -35 -48 -102 -19 -57 -37
-104 -40 -106 -3 -1 -3 -17 -1 -34 6 -39 -14 -30 -23 11 -5 22 0 39 19 68 14
21 30 60 34 85 9 45 52 112 69 106 4 -2 7 -6 6 -10 -2 -5 2 -8 7 -8 13 0 13
13 -2 28 -9 9 -7 16 7 32 10 11 19 20 20 20 0 0 0 -105 -2 -232z m1103 88 c-4
-24 -16 -53 -27 -65 -22 -23 -44 -28 -37 -8 3 6 15 43 28 81 18 56 24 66 32
52 6 -10 7 -37 4 -60z m-1436 24 c0 -3 9 -49 20 -103 24 -118 24 -118 5 -111
-8 4 -15 1 -15 -5 0 -6 12 -11 26 -11 24 0 26 3 21 28 -21 105 -21 99 10 95
20 -3 34 2 47 16 19 21 19 22 0 36 -10 8 -36 18 -56 21 -52 9 -48 24 7 24 32
0 51 -6 66 -21 26 -26 39 -16 14 11 -10 11 -29 20 -42 20 -14 0 -23 6 -23 15
0 8 6 15 13 15 6 0 22 3 33 6 17 5 24 -1 33 -27 18 -52 13 -104 -18 -181 -40
-104 -43 -118 -42 -261 l0 -129 -35 -14 c-63 -26 -92 -10 -145 81 -25 44 -69
105 -96 135 -27 30 -58 70 -69 88 -21 37 -30 40 -37 12 -6 -22 -31 -26 -71
-10 -28 10 -52 76 -41 111 7 20 7 20 38 0 35 -21 139 -63 144 -57 2 2 -10 32
-27 68 -27 57 -52 168 -38 168 3 0 19 -5 36 -11 30 -10 31 -12 16 -35 -9 -13
-14 -29 -12 -36 3 -7 11 0 19 17 l14 30 95 -1 c52 -1 86 1 75 3 -28 7 -39 19
-31 38 5 15 8 15 36 -2 16 -9 30 -20 30 -23z m741 -30 c5 0 9 -29 9 -65 0 -75
-10 -82 -59 -36 -37 35 -41 73 -9 96 13 8 29 13 36 10 8 -3 18 -5 23 -5z
m-691 -35 c0 -18 26 -20 33 -2 3 9 7 9 17 0 19 -17 -23 -37 -50 -23 -21 11
-28 40 -10 40 6 0 10 -7 10 -15z m1655 -5 c-6 -19 -4 -20 22 -14 15 4 45 13
67 21 51 17 70 17 62 -2 -7 -19 10 -19 63 0 22 8 41 13 41 11 0 -2 -5 -17 -11
-35 -9 -26 -8 -51 7 -121 14 -70 15 -97 7 -125 -8 -26 -8 -35 0 -35 16 0 114
57 122 70 14 22 25 8 25 -33 0 -23 -7 -53 -16 -65 -18 -26 -54 -30 -54 -5 0
26 -15 3 -29 -44 -9 -32 -26 -54 -69 -90 -31 -26 -82 -74 -114 -105 -52 -53
-60 -58 -101 -58 -48 0 -65 13 -106 83 -13 20 -54 76 -91 124 -38 47 -71 97
-75 110 -3 15 4 49 21 91 17 43 27 88 28 124 1 32 4 58 8 58 3 0 20 -14 37
-31 33 -32 41 -28 16 8 -8 11 -26 24 -40 27 -14 4 -25 10 -25 15 0 12 54 21
58 10 5 -14 33 -11 92 11 30 10 56 19 58 20 2 0 0 -9 -3 -20z m-216 -93 c1
-21 -8 -63 -20 -95 -46 -128 -45 -136 46 -247 36 -44 80 -104 96 -133 39 -67
66 -85 120 -80 l41 4 -7 -51 c-3 -28 -14 -58 -25 -69 -10 -10 -57 -29 -105
-41 -48 -13 -90 -27 -95 -31 -4 -5 -13 -43 -19 -84 -7 -41 -13 -76 -15 -78 -2
-1 -7 77 -10 175 -8 218 -22 323 -45 340 -9 7 -37 22 -62 34 -38 17 -48 28
-62 67 -17 45 -17 47 5 90 22 42 24 43 61 38 41 -7 43 -3 22 34 -15 26 -19 96
-9 148 5 22 14 32 38 39 36 11 44 0 45 -60z m-1300 -184 c-1 -78 -1 -78 -35
-100 l-34 -22 0 71 0 70 26 -6 c23 -6 25 -4 19 11 -18 44 -18 53 3 53 19 0 21
-6 21 -77z m551 2 c4 -35 0 -46 -12 -39 -8 5 -9 2 -5 -9 3 -10 2 -17 -3 -17
-6 0 -10 7 -10 16 0 8 -5 12 -11 8 -6 -3 -8 -17 -5 -29 3 -13 1 -34 -4 -47 -9
-21 -10 -20 -5 7 4 24 1 33 -17 44 -18 10 -20 10 -10 0 15 -16 16 -33 2 -24
-14 9 0 -48 14 -57 11 -7 46 38 46 60 0 6 5 12 10 12 6 0 10 7 10 15 0 8 7 15
15 15 8 0 15 4 15 9 0 5 7 11 15 15 12 4 12 1 -2 -22 -10 -15 -20 -29 -23 -32
-3 -3 -19 -27 -34 -55 -16 -27 -30 -51 -32 -53 -2 -3 -62 25 -72 33 -1 1 3 25
10 54 8 38 16 51 30 51 11 0 26 16 39 41 20 41 35 42 39 4z m138 -84 c37 -19
12 -44 -79 -79 -45 -18 -83 -31 -84 -30 -2 2 20 38 47 81 l51 78 21 -19 c11
-11 31 -25 44 -31z m-986 -60 c51 -89 53 -85 -32 -56 -35 12 -35 12 -38 79 -4
88 8 84 70 -23z m1430 -7 c4 -6 -3 -23 -17 -38 -31 -34 -88 -35 -135 -3 -19
12 -35 27 -37 32 -5 17 82 39 105 26 12 -6 24 -11 29 -11 4 1 -3 7 -15 14
l-24 13 34 21 33 22 10 -33 c6 -17 13 -37 17 -43z m-346 21 c27 -8 60 -15 74
-15 l25 -1 -32 -29 c-25 -22 -41 -29 -72 -28 -57 1 -75 16 -66 56 8 37 6 37
71 17z m995 -96 c-15 -25 -17 -35 -8 -41 21 -13 -7 -41 -54 -53 -24 -7 -57
-15 -74 -19 l-30 -8 30 32 c34 36 148 130 153 125 2 -1 -6 -18 -17 -36z
m-2108 1 c34 -11 73 -22 87 -24 19 -4 25 -11 25 -30 0 -13 -3 -22 -7 -20 -3 2
-30 6 -59 9 -28 3 -57 9 -63 12 -6 4 -23 6 -38 4 -26 -2 -27 0 -26 33 1 20 5
36 10 36 5 0 37 -9 71 -20z m1199 -46 c-2 -32 -7 -75 -11 -94 l-7 -35 -40 55
c-23 30 -48 70 -58 87 -16 33 -16 33 6 24 17 -6 34 -3 58 9 19 10 40 17 45 15
6 -1 9 -27 7 -61z m121 41 c20 -10 37 -23 37 -29 0 -6 4 -5 9 3 5 7 14 12 20
10 10 -4 -100 -140 -118 -147 -4 -1 -8 17 -9 40 -1 24 -4 60 -8 81 -5 35 9 73
25 65 3 -2 23 -12 44 -23z m-1048 -34 c11 -22 12 -37 5 -55 -5 -14 -12 -26
-15 -26 -3 0 -32 14 -65 30 -67 34 -79 60 -27 60 17 0 39 5 47 10 25 16 39 11
55 -19z m102 23 c-3 -3 -12 -4 -19 -1 -8 3 -5 6 6 6 11 1 17 -2 13 -5z m1763
-34 c0 -5 -4 -10 -10 -10 -5 0 -10 5 -10 10 0 6 5 10 10 10 6 0 10 -4 10 -10z
m-2232 -280 c5 -91 8 -166 8 -166 -1 -1 -29 -4 -63 -6 l-63 -4 -2 70 c-1 39
-1 94 1 123 2 51 -13 80 -26 47 -3 -9 -11 -67 -17 -128 l-11 -111 -37 -3 -37
-3 4 62 c9 142 28 295 38 307 7 9 23 12 47 8 30 -5 42 0 85 34 l50 40 8 -53
c4 -28 11 -126 15 -217z m633 260 c13 0 18 -17 24 -82 12 -122 9 -239 -7 -249
-10 -7 -10 -9 0 -9 8 0 12 -16 12 -45 0 -42 -2 -45 -26 -45 -23 0 -25 3 -23
48 0 26 -2 71 -6 101 -6 40 -5 52 4 47 6 -4 9 -12 6 -17 -4 -5 -1 -9 4 -9 6 0
11 -10 12 -22 0 -22 1 -22 8 -3 5 11 4 22 -1 23 -5 2 -4 10 3 18 10 12 9 13
-5 8 -12 -5 -16 0 -16 17 0 20 2 21 11 9 8 -12 9 -10 4 8 -4 13 -2 22 4 22 6
0 11 7 11 16 0 8 -4 13 -9 9 -5 -3 -12 3 -14 12 -2 10 -3 7 -2 -6 2 -13 -3
-34 -10 -47 -11 -22 -13 -15 -24 69 -7 50 -15 103 -17 116 -4 21 -2 23 18 17
13 -3 30 -6 39 -6z m-496 -23 l70 -12 6 -100 c11 -173 10 -307 -2 -299 -6 3
-46 6 -88 6 l-78 -1 -12 162 c-6 89 -14 183 -16 208 -4 53 0 61 29 54 12 -3
53 -11 91 -18z m203 -48 c6 -15 20 -10 45 17 l24 25 38 -118 c20 -65 38 -129
39 -143 0 -14 5 -28 9 -31 5 -4 13 -24 17 -45 4 -22 10 -46 14 -54 5 -12 -3
-15 -43 -14 -27 1 -53 4 -59 8 -5 3 -22 44 -37 91 -17 54 -32 85 -41 85 -19 0
-18 16 1 24 9 3 18 -1 21 -9 9 -22 19 -18 34 11 12 22 12 27 0 35 -13 9 -13
10 -1 7 16 -5 45 -78 30 -78 -5 0 -9 7 -9 16 0 13 -2 14 -14 1 -18 -17 -9 -60
10 -53 17 6 33 -41 27 -80 -5 -34 6 -48 31 -38 20 8 20 21 1 40 -8 9 -15 21
-15 27 0 7 4 6 10 -3 6 -9 10 -10 10 -3 0 6 -4 14 -9 17 -5 4 -12 25 -16 48
-4 22 -14 57 -22 76 -8 19 -12 41 -9 49 4 11 2 13 -9 9 -12 -4 -15 2 -15 29 0
31 -2 33 -27 29 -15 -3 -30 -7 -34 -10 -12 -7 -39 7 -39 21 0 7 -8 15 -18 17
-13 4 -18 -1 -19 -16 -1 -12 1 -15 4 -8 10 26 18 10 21 -38 1 -30 -2 -50 -9
-50 -5 0 -7 -4 -4 -10 3 -5 6 -41 6 -80 0 -38 3 -70 7 -70 4 0 7 -23 7 -50 0
-40 -3 -50 -16 -50 -22 0 -27 37 -35 248 l-7 172 49 -21 c27 -12 51 -26 52
-30z m1136 36 c-4 -8 -11 -15 -16 -15 -6 0 -5 6 2 15 7 8 14 15 16 15 2 0 1
-7 -2 -15z m726 -48 c0 -18 4 -47 9 -65 l10 -32 -38 0 c-48 0 -58 12 -63 75
l-3 50 35 6 c46 7 50 4 50 -34z m-130 -27 c0 -39 -26 -80 -50 -80 -14 0 -13 7
16 108 2 6 10 12 19 12 11 0 15 -11 15 -40z m-1074 -8 c25 -20 55 -69 82 -133
l20 -47 -47 -25 c-41 -23 -48 -24 -57 -10 -8 13 -18 9 -71 -27 -59 -41 -83
-45 -83 -14 0 26 71 93 111 106 21 6 39 15 39 20 0 25 -84 -13 -127 -58 -40
-43 -69 -41 -58 4 12 50 73 96 127 94 15 0 30 4 33 9 8 12 -47 11 -82 -2 -15
-5 -40 -22 -55 -36 -36 -34 -47 -23 -17 16 33 40 95 74 125 68 13 -2 27 -1 29
3 3 4 -9 10 -25 12 -41 6 -103 -23 -131 -61 -26 -35 -49 -41 -49 -12 0 29 39
72 84 92 52 24 124 24 152 1z m-654 -37 c2 -19 0 -36 -4 -37 -5 -2 -10 -24
-12 -50 -1 -26 0 -45 4 -43 3 2 6 -32 7 -76 1 -62 -2 -79 -13 -79 -10 0 -14
13 -16 43 -2 79 -7 142 -14 180 -4 24 -2 37 5 37 6 0 11 -12 11 -27 0 -48 11
-16 13 36 1 58 13 68 19 16z m953 -5 c3 -6 -1 -7 -9 -4 -18 7 -21 14 -7 14 6
0 13 -4 16 -10z m-915 -30 c0 -5 -2 -10 -4 -10 -3 0 -8 5 -11 10 -3 6 -1 10 4
10 6 0 11 -4 11 -10z m1695 -85 l-7 -87 -26 7 c-34 8 -67 39 -83 76 -16 39 9
71 50 63 19 -4 32 0 45 15 11 12 21 19 24 17 2 -3 1 -44 -3 -91z m118 67 c62
-6 76 -28 50 -80 -12 -25 -33 -44 -66 -61 -26 -13 -49 -22 -51 -20 -2 2 -6 44
-8 92 -4 77 -2 87 11 81 9 -3 38 -9 64 -12z m-1793 -6 c0 -11 -19 -15 -25 -6
-3 5 1 10 9 10 9 0 16 -2 16 -4z m1003 -7 c12 -7 50 -36 83 -65 54 -47 62 -59
66 -94 2 -22 2 -40 0 -40 -1 0 -28 13 -60 29 -31 15 -85 39 -119 51 -60 22
-63 24 -63 56 0 36 29 74 56 74 8 0 25 -5 37 -11z m-107 -8 c-3 -5 -9 -47 -12
-92 -7 -86 -13 -99 -51 -99 -22 0 -23 4 -23 78 l0 77 38 21 c41 24 56 29 48
15z m-526 -126 c0 -60 -3 -75 -15 -75 -8 0 -16 8 -17 18 0 9 -2 28 -3 42 -1
14 -5 40 -9 58 -7 30 -6 32 18 32 26 0 26 -1 26 -75z m1481 12 l-24 -22 19 27
c10 14 21 24 23 22 3 -3 -6 -15 -18 -27z m-265 -25 c-3 -2 -13 1 -23 7 -10 6
-14 11 -9 11 5 0 2 8 -5 18 -7 9 -1 6 14 -7 15 -14 25 -26 23 -29z m-1026 -7
c-7 -8 -17 -15 -23 -15 -6 0 -2 7 9 15 25 19 30 19 14 0z m1246 0 c-11 -8 -25
-15 -30 -15 -6 1 0 7 14 15 32 19 40 18 16 0z m-1749 -27 c-3 -8 -6 -5 -6 6
-1 11 2 17 5 13 3 -3 4 -12 1 -19z m1670 -14 c-3 -3 -12 -4 -19 -1 -8 3 -5 6
6 6 11 1 17 -2 13 -5z"/>
<path d="M1313 2396 c4 -14 47 -21 47 -8 0 5 -11 12 -25 15 -16 3 -24 0 -22
-7z"/>
<path d="M1266 2342 c-3 -5 2 -16 12 -25 23 -21 68 -31 76 -18 5 7 -3 11 -18
11 -14 0 -34 9 -45 21 -10 11 -22 16 -25 11z"/>
<path d="M1756 2065 c-22 -19 -33 -35 -25 -35 13 1 79 54 79 65 0 12 -17 2
-54 -30z"/>
<path d="M1777 2036 c-60 -33 -67 -49 -30 -73 19 -13 23 -12 43 9 26 27 53 76
48 87 -2 4 -29 -6 -61 -23z m36 -11 c-3 -9 -8 -14 -10 -11 -3 3 -2 9 2 15 9
16 15 13 8 -4z m-29 -24 c9 -15 -23 -36 -36 -23 -5 5 -7 15 -4 21 9 13 33 14
40 2z"/>
<path d="M2000 2059 c0 -20 33 -67 55 -79 17 -9 28 -9 44 -1 33 18 25 34 -32
64 -58 30 -67 32 -67 16z m70 -44 c27 0 30 -19 3 -23 -13 -2 -27 5 -37 20 -20
28 -21 50 0 23 8 -11 23 -20 34 -20z"/>
<path d="M1800 1771 c-5 -11 -10 -30 -9 -43 0 -13 3 -17 6 -10 4 9 8 10 18 2
19 -16 120 -26 111 -12 -4 7 -24 12 -45 12 -52 0 -77 20 -62 48 7 14 8 22 2
22 -6 0 -15 -9 -21 -19z"/>
<path d="M1390 2040 c-6 -11 -9 -20 -8 -20 2 0 11 9 21 20 9 11 13 20 7 20 -5
0 -14 -9 -20 -20z"/>
<path d="M1272 2046 c4 -4 2 -19 -3 -33 -6 -16 -5 -30 1 -41 9 -14 10 -13 5 6
-6 21 -5 23 13 13 11 -6 23 -26 26 -45 8 -40 26 -58 26 -27 0 12 -6 21 -12 21
-9 0 -8 4 2 11 13 8 12 12 -7 26 -13 8 -23 23 -23 33 0 10 -8 24 -17 31 -10 7
-15 10 -11 5z"/>
<path d="M1320 2031 c0 -6 5 -13 10 -16 6 -3 10 1 10 9 0 9 -4 16 -10 16 -5 0
-10 -4 -10 -9z"/>
<path d="M1361 2030 c0 -8 4 -22 9 -30 12 -18 12 -2 0 25 -6 13 -9 15 -9 5z"/>
<path d="M1283 1943 c-15 -5 -18 -73 -4 -73 5 0 13 -10 17 -22 7 -22 7 -22 15
-3 10 27 11 43 0 27 -6 -10 -11 -10 -21 3 -11 13 -11 18 -1 24 16 10 10 49 -6
44z"/>
<path d="M1282 1800 c-7 -11 -12 -28 -11 -37 0 -11 7 -5 15 16 17 38 14 50 -4
21z"/>
<path d="M1473 1865 c-9 -25 2 -27 22 -5 17 18 17 20 1 20 -9 0 -19 -7 -23
-15z"/>
<path d="M1380 1816 c0 -8 4 -17 9 -20 5 -4 7 3 4 14 -6 23 -13 26 -13 6z"/>
<path d="M1370 1774 c0 -11 -3 -30 -5 -44 -5 -22 -4 -22 4 -5 8 17 10 18 10 3
1 -10 6 -18 11 -18 6 0 10 -12 10 -27 0 -33 5 -28 13 14 5 23 3 32 -6 30 -7
-1 -11 7 -9 19 1 12 -4 27 -13 34 -13 10 -15 9 -15 -6z"/>
<path d="M1480 1772 c0 -4 6 -14 12 -20 8 -8 9 -15 3 -20 -6 -4 -10 -19 -10
-33 -1 -20 3 -25 15 -21 13 5 13 3 1 -11 -9 -11 -10 -17 -2 -17 10 0 15 14 12
34 -1 4 6 15 16 23 10 8 12 11 5 8 -8 -4 -12 -2 -11 6 2 8 -3 24 -11 37 -15
22 -30 29 -30 14z"/>
<path d="M1352 1666 c2 -16 9 -31 17 -34 10 -3 11 2 6 19 -12 39 -27 48 -23
15z"/>
<path d="M1400 1630 c0 -22 -7 -25 -30 -10 -9 6 -17 5 -22 -3 -11 -17 -10 -39
2 -32 6 3 10 -1 10 -9 0 -8 6 -16 13 -19 6 -2 4 -3 -5 -2 -14 3 -18 -4 -18
-29 0 -18 -3 -36 -7 -40 -4 -4 -6 -27 -4 -52 2 -29 -1 -44 -7 -40 -6 4 -14 1
-18 -5 -4 -8 -3 -9 4 -5 8 5 12 -3 12 -24 0 -18 4 -29 10 -25 6 3 10 -3 10
-14 0 -12 5 -21 11 -21 5 0 7 -5 3 -11 -5 -8 -9 -8 -14 1 -5 8 -10 8 -14 2 -3
-5 1 -15 9 -22 16 -13 21 -35 6 -26 -5 3 -11 -1 -15 -9 -3 -8 0 -14 6 -12 6 1
13 -4 15 -10 3 -7 0 -13 -6 -13 -16 0 -13 -16 6 -36 18 -17 26 -57 11 -48 -5
4 -7 12 -4 20 3 8 1 14 -5 14 -10 0 -4 -48 7 -60 13 -12 21 28 17 81 -4 42 -2
59 7 59 7 0 11 -16 10 -47 -2 -63 -1 -70 8 -56 10 16 -1 132 -14 141 -13 9
-13 73 0 69 6 -2 13 -13 16 -24 5 -19 6 -19 33 7 25 23 27 28 12 33 -11 5 -14
3 -9 -6 5 -8 2 -7 -9 2 -9 7 -17 22 -17 33 0 14 -5 18 -14 15 -9 -4 -17 2 -21
14 -4 10 -11 17 -16 14 -5 -4 -9 -1 -9 4 0 16 20 13 26 -4 7 -17 25 -3 37 28
3 9 13 17 21 17 9 0 12 7 9 19 -2 10 4 26 14 36 17 18 17 18 -4 13 -16 -4 -23
-2 -23 7 0 9 8 12 20 10 12 -2 18 0 15 6 -4 5 -10 7 -15 4 -5 -3 -11 -1 -15 5
-4 6 -11 8 -16 5 -5 -4 -9 -2 -9 3 0 17 13 22 28 9 13 -11 14 -9 2 13 -14 26
-35 50 -44 50 -3 0 -6 -9 -6 -20z m10 -175 c0 -8 -4 -15 -9 -15 -5 0 -11 7
-15 15 -3 9 0 15 9 15 8 0 15 -7 15 -15z"/>
<path d="M1430 1452 c0 -5 7 -9 15 -9 8 0 15 4 15 9 0 4 -7 8 -15 8 -8 0 -15
-4 -15 -8z"/>
<path d="M1181 1853 c-1 -6 -4 -20 -7 -30 -5 -17 -5 -17 6 0 6 10 9 23 6 30
-3 9 -5 9 -5 0z"/>
<path d="M1151 1294 c0 -11 3 -14 6 -6 3 7 2 16 -1 19 -3 4 -6 -2 -5 -13z"/>
<path d="M1132 1255 c0 -16 2 -22 5 -12 2 9 2 23 0 30 -3 6 -5 -1 -5 -18z"/>
<path d="M1150 1250 c0 -5 5 -10 10 -10 6 0 10 5 10 10 0 6 -4 10 -10 10 -5 0
-10 -4 -10 -10z"/>
<path d="M1105 1222 c-10 -10 -5 -23 6 -16 7 4 9 -5 6 -30 -3 -20 -1 -33 4
-30 5 3 9 12 9 20 0 8 4 13 9 10 5 -3 11 7 13 23 4 24 1 29 -18 29 -13 0 -26
-3 -29 -6z"/>
<path d="M748 1844 c-28 -15 -56 -54 -39 -54 5 0 11 6 14 13 4 10 7 10 18 0
31 -30 99 -2 99 40 0 22 -54 22 -92 1z m77 -3 c3 -5 1 -12 -5 -16 -5 -3 -10 1
-10 9 0 18 6 21 15 7z m-49 -39 c-10 -10 -29 15 -21 28 6 9 10 8 17 -4 6 -10
7 -20 4 -24z"/>
<path d="M751 1654 c-26 -19 -30 -24 -15 -24 22 0 64 27 64 41 0 14 -11 10
-49 -17z"/>
<path d="M776 1631 c-8 -13 13 -130 30 -162 18 -36 43 -49 90 -49 l37 0 -6 53
c-7 59 5 126 24 138 21 13 3 22 -19 10 -28 -15 -82 -13 -112 4 -29 17 -37 18
-44 6z m50 -26 c16 -8 44 -15 62 -15 25 0 32 -4 32 -20 0 -42 -94 -18 -120 31
-13 23 -11 23 26 4z m62 -125 c25 0 32 -4 32 -20 0 -11 -7 -23 -15 -26 -22 -9
-68 13 -84 38 -12 19 -11 20 11 15 12 -4 38 -7 56 -7z"/>
<path d="M2700 1782 c-30 -10 -104 -66 -92 -70 6 -2 26 8 45 22 50 38 76 37
104 -3 13 -19 23 -28 23 -20 0 35 -51 81 -80 71z"/>
<path d="M2400 1700 c-11 -11 -20 -30 -20 -43 0 -13 -5 -28 -12 -35 -9 -9 -8
-12 4 -12 8 0 21 -7 28 -15 7 -8 24 -15 37 -15 l25 0 -21 -34 c-20 -31 -20
-35 -5 -50 8 -9 20 -13 26 -10 7 4 4 10 -6 16 -15 8 -14 13 9 52 35 59 34 117
-1 145 -33 26 -39 26 -64 1z m59 -13 c8 -11 3 -17 -25 -31 -43 -20 -48 -18
-35 18 11 28 41 35 60 13z m12 -59 c-12 -32 -36 -45 -55 -29 -9 8 -16 18 -16
23 0 6 6 5 15 -2 16 -14 35 -6 35 16 0 8 7 14 15 14 11 0 12 -6 6 -22z"/>
<path d="M2612 1667 c-29 -30 -30 -89 -2 -117 26 -26 70 -26 104 1 14 11 30
17 36 14 5 -3 10 -1 10 4 0 6 -4 11 -10 11 -5 0 -10 12 -10 28 -1 31 -16 54
-47 70 -33 18 -57 14 -81 -11z m101 -30 c31 -40 11 -48 -52 -20 -45 20 -51 26
-40 39 19 23 69 14 92 -19z m-58 -47 c10 8 19 8 34 0 28 -14 26 -28 -5 -40
-29 -12 -58 0 -74 30 -17 32 -11 45 11 21 16 -17 24 -19 34 -11z"/>
<path d="M2606 1428 c-11 -6 -47 -9 -87 -6 -38 3 -69 1 -69 -3 0 -5 6 -9 14
-9 8 0 18 -10 21 -22 26 -86 115 -89 115 -4 0 16 7 27 20 31 11 3 20 11 20 16
0 12 -10 11 -34 -3z m-50 -43 c-26 -19 -56 -19 -56 0 0 11 11 15 38 15 35 -1
36 -2 18 -15z"/>
<path d="M2527 1304 c-4 -4 -2 -13 4 -21 13 -15 59 -18 59 -3 0 6 -11 10 -24
10 -13 0 -26 5 -28 11 -2 5 -7 7 -11 3z"/>
<path d="M1021 1484 c0 -11 3 -14 6 -6 3 7 2 16 -1 19 -3 4 -6 -2 -5 -13z"/>
<path d="M2150 1385 c-14 -16 -3 -20 19 -6 8 5 9 11 3 15 -5 3 -15 -1 -22 -9z"/>
<path d="M2065 1376 c14 -11 16 -15 6 -16 -8 0 -12 -2 -9 -5 10 -11 58 7 58
21 0 8 -4 14 -10 14 -5 0 -10 -6 -10 -12 0 -8 -3 -9 -8 -3 -4 6 -16 11 -27 13
l-20 4 20 -16z"/>
<path d="M1815 1380 c-3 -5 -1 -10 4 -10 6 0 11 5 11 10 0 6 -2 10 -4 10 -3 0
-8 -4 -11 -10z"/>
<path d="M1876 1292 c-3 -5 1 -15 9 -22 21 -17 27 -9 10 13 -7 10 -16 14 -19
9z"/>
<path d="M1860 1262 c0 -5 8 -16 18 -25 14 -13 19 -14 19 -3 0 7 -9 18 -19 25
-10 6 -18 7 -18 3z"/>
<path d="M2034 1275 c3 -8 1 -15 -5 -15 -6 0 -7 -5 -4 -10 4 -7 13 -7 26 0 17
10 18 13 5 25 -19 19 -30 19 -22 0z"/>
<path d="M573 1204 c-7 -3 -9 -12 -6 -21 4 -11 2 -14 -5 -9 -7 4 -12 3 -12 -3
0 -5 5 -13 10 -16 6 -3 11 -25 11 -48 2 -33 3 -35 6 -12 2 17 7 37 10 45 8 18
10 70 3 69 -3 0 -10 -3 -17 -5z"/>
<path d="M464 1162 c-6 -10 -15 -33 -19 -52 -4 -19 -13 -38 -19 -42 -6 -5 -2
-8 11 -8 17 0 21 4 17 18 -3 10 0 8 8 -5 l14 -23 18 34 c12 22 16 42 11 57 -7
23 -6 23 11 6 16 -14 17 -22 7 -47 -7 -18 -7 -32 -2 -36 5 -3 12 2 15 11 5 13
9 14 15 4 4 -8 4 -16 -2 -20 -6 -4 -6 -15 0 -32 9 -22 8 -25 -7 -21 -14 5 -13
3 2 -10 11 -9 14 -16 8 -16 -16 0 -15 -52 1 -69 10 -11 10 -13 0 -7 -19 11
-16 1 13 -41 l26 -38 -7 89 c-6 66 -5 87 4 82 6 -4 9 -12 6 -17 -4 -5 -1 -9 4
-9 7 0 11 29 11 75 0 43 -4 75 -10 75 -5 0 -10 -10 -10 -22 0 -13 -3 -34 -7
-47 -5 -21 -7 -20 -19 15 -8 22 -14 50 -14 64 0 14 -5 32 -11 40 -9 13 -10 12
-5 -2 7 -22 -2 -22 -28 -3 -25 19 -29 19 -42 -3z m19 -9 c-7 -3 -13 -12 -14
-21 0 -11 -2 -13 -6 -4 -6 15 17 46 26 36 3 -4 0 -9 -6 -11z m4 -45 c-3 -8 -6
-5 -6 6 -1 11 2 17 5 13 3 -3 4 -12 1 -19z"/>
<path d="M444 1025 c-4 -8 -3 -23 0 -32 4 -9 2 -20 -5 -23 -6 -4 -11 -34 -12
-68 -1 -33 1 -58 4 -56 6 3 11 41 24 157 5 38 -1 49 -11 22z"/>
<path d="M607 891 c-2 -10 -1 -25 4 -32 6 -10 9 -4 9 19 0 36 -5 42 -13 13z"/>
<path d="M551 854 c0 -11 3 -14 6 -6 3 7 2 16 -1 19 -3 4 -6 -2 -5 -13z"/>
<path d="M1255 1200 c3 -5 8 -10 11 -10 2 0 4 5 4 10 0 6 -5 10 -11 10 -5 0
-7 -4 -4 -10z"/>
<path d="M1250 1149 c0 -5 5 -7 10 -4 6 3 10 8 10 11 0 2 -4 4 -10 4 -5 0 -10
-5 -10 -11z"/>
<path d="M692 1161 c0 -36 2 -42 9 -26 7 15 8 10 4 -18 -4 -21 -9 -46 -12 -55
-4 -15 -3 -15 6 -2 8 12 11 5 11 -30 0 -54 17 -43 23 15 4 40 4 40 5 -7 1 -27
6 -48 10 -48 10 0 -6 142 -17 150 -14 10 -21 40 -8 40 15 0 46 -20 32 -20 -5
0 -3 -6 5 -13 8 -7 15 -25 16 -42 0 -16 2 -48 4 -70 1 -22 -1 -48 -5 -57 -5
-13 -3 -18 8 -18 8 0 17 6 20 13 2 6 9 -8 15 -33 l12 -45 -6 45 c-3 24 -10 48
-16 51 -7 4 -10 26 -8 51 2 23 3 58 4 76 1 17 4 32 9 32 4 0 7 6 7 14 0 18
-53 39 -79 31 -12 -3 -21 -2 -21 3 0 5 -6 9 -14 9 -9 0 -14 -14 -14 -46z m108
9 c0 -5 -7 -10 -16 -10 -8 0 -12 5 -9 10 3 6 10 10 16 10 5 0 9 -4 9 -10z"/>
<path d="M822 1040 c0 -19 2 -27 5 -17 2 9 2 25 0 35 -3 9 -5 1 -5 -18z"/>
<path d="M711 943 c-1 -32 3 -43 14 -43 8 0 15 9 15 20 0 11 -4 20 -9 20 -5 0
-12 10 -14 23 -2 12 -5 3 -6 -20z"/>
<path d="M768 903 c6 -2 18 -2 25 0 6 3 1 5 -13 5 -14 0 -19 -2 -12 -5z"/>
<path d="M720 865 c0 -8 5 -15 10 -15 6 0 10 7 10 15 0 8 -4 15 -10 15 -5 0
-10 -7 -10 -15z"/>
<path d="M760 865 c0 -8 7 -15 15 -15 8 0 15 7 15 15 0 8 -7 15 -15 15 -8 0
-15 -7 -15 -15z"/>
<path d="M821 864 c0 -11 3 -14 6 -6 3 7 2 16 -1 19 -3 4 -6 -2 -5 -13z"/>
<path d="M1025 1179 c-4 -6 -4 -13 -1 -16 3 -4 6 0 6 7 0 9 5 7 16 -6 14 -18
15 -18 4 4 -12 25 -16 27 -25 11z"/>
<path d="M955 1171 c-6 -11 13 -26 22 -17 4 3 1 6 -6 6 -7 0 -9 5 -6 10 3 6 4
10 1 10 -3 0 -7 -4 -11 -9z"/>
<path d="M1051 1124 c0 -11 3 -14 6 -6 3 7 2 16 -1 19 -3 4 -6 -2 -5 -13z"/>
<path d="M1060 899 c0 -5 5 -7 10 -4 6 3 10 8 10 11 0 2 -4 4 -10 4 -5 0 -10
-5 -10 -11z"/>
<path d="M1061 844 c0 -11 3 -14 6 -6 3 7 2 16 -1 19 -3 4 -6 -2 -5 -13z"/>
<path d="M2795 1141 c5 -34 12 -48 19 -40 2 2 -3 20 -10 39 l-14 35 5 -34z"/>
<path d="M2626 1001 c-9 -13 12 -63 23 -57 5 3 7 14 4 25 -3 11 2 21 11 24 9
4 16 2 16 -4 0 -6 5 -7 11 -3 20 12 -7 27 -29 15 -26 -14 -35 -14 -27 -1 3 6
4 10 1 10 -3 0 -7 -4 -10 -9z"/>
<path d="M2672 935 c0 -16 2 -22 5 -12 2 9 2 23 0 30 -3 6 -5 -1 -5 -18z"/>
<path d="M2775 1000 c-3 -6 1 -7 10 -4 11 4 14 2 9 -9 -4 -12 -1 -14 15 -10
15 4 21 1 21 -11 0 -10 -4 -14 -10 -11 -6 3 -7 -1 -4 -10 4 -9 7 -15 8 -13 1
2 10 16 20 32 10 16 13 25 7 22 -6 -4 -21 0 -33 8 -26 19 -35 20 -43 6z"/>
<path d="M2025 2785 l0 -255 63 0 c53 0 67 4 87 24 44 44 48 187 7 228 -20 20
-20 22 -4 47 24 35 23 147 -1 184 -16 25 -23 27 -85 27 l-67 0 0 -255z m103
213 c17 -17 15 -130 -1 -153 -25 -33 -37 -8 -37 81 0 85 8 102 38 72z m6 -230
c45 -71 17 -234 -35 -202 -10 6 -13 207 -2 217 11 12 22 8 37 -15z"/>
<path d="M2390 3000 c0 -5 7 -10 16 -10 13 0 15 -13 12 -85 -3 -76 -1 -85 15
-85 15 0 17 11 17 85 0 50 4 85 10 85 6 0 10 5 10 10 0 6 -18 10 -40 10 -22 0
-40 -4 -40 -10z"/>
<path d="M2470 2900 c0 -51 4 -70 13 -70 9 0 12 11 9 35 -4 31 -2 35 18 35 20
0 22 -4 17 -35 -5 -30 -3 -35 15 -35 14 0 18 5 14 16 -3 9 -6 40 -6 70 0 41
-4 54 -15 54 -9 0 -14 -8 -12 -22 1 -15 -3 -23 -13 -23 -10 0 -14 8 -13 23 2
14 -3 22 -12 22 -12 0 -15 -15 -15 -70z"/>
<path d="M2570 2900 l0 -70 35 0 c19 0 35 5 35 11 0 6 -9 8 -20 4 -17 -5 -20
-2 -20 24 0 21 5 31 15 31 8 0 15 5 15 10 0 6 -7 10 -15 10 -8 0 -15 9 -15 21
0 16 4 19 20 14 11 -4 20 -2 20 4 0 6 -16 11 -35 11 l-35 0 0 -70z"/>
<path d="M2516 2798 c-3 -7 -7 -23 -9 -36 -5 -19 -3 -21 9 -11 7 6 21 8 30 5
13 -5 15 -25 12 -148 -2 -79 -7 -151 -12 -160 -7 -16 -3 -18 32 -18 40 0 41 0
32 30 -5 16 -8 89 -7 162 2 132 2 133 25 131 22 -3 28 11 16 41 -8 20 -122 23
-128 4z"/>
<path d="M2965 2785 c-44 -44 -34 -73 49 -142 31 -25 32 -59 4 -77 -23 -14
-52 3 -56 33 -4 28 -22 17 -22 -14 0 -53 83 -73 125 -30 44 43 30 99 -35 140
-42 27 -51 54 -24 76 12 10 20 10 35 1 24 -15 29 -15 29 1 0 15 -41 37 -66 37
-8 0 -26 -11 -39 -25z"/>
<path d="M2222 2665 l-1 -135 60 0 c53 0 61 3 68 23 10 26 5 35 -11 19 -7 -7
-22 -12 -35 -12 -21 0 -23 4 -23 56 0 54 1 56 24 50 17 -4 26 -1 30 10 9 23 8
24 -24 24 -28 0 -30 3 -30 34 0 32 3 35 32 38 17 2 33 9 36 16 3 9 -14 12 -61
12 l-64 0 -1 -135z"/>
<path d="M2401 2693 c-12 -60 -26 -120 -31 -135 -8 -25 -7 -28 15 -28 18 0 25
7 30 30 5 23 12 30 31 30 20 0 24 -5 24 -30 0 -28 3 -30 35 -30 32 0 35 2 25
20 -15 27 -52 220 -46 236 4 10 -4 14 -28 14 l-33 0 -22 -107z m53 -15 c6 -31
4 -38 -9 -38 -16 0 -19 20 -9 58 8 28 10 26 18 -20z"/>
<path d="M2664 2665 l-1 -136 56 3 c49 3 56 6 59 26 3 21 2 21 -23 10 -40 -18
-46 1 -39 125 l7 107 -29 0 -29 0 -1 -135z"/>
<path d="M2795 2665 l0 -135 63 0 c34 0 62 4 62 9 0 5 3 17 7 26 5 15 3 16
-15 6 -11 -6 -30 -11 -41 -11 -19 0 -21 6 -21 56 l0 57 30 -6 c25 -6 30 -3 30
13 0 16 -7 20 -30 20 -28 0 -30 3 -30 35 0 33 2 35 35 35 24 0 35 5 35 15 0
12 -14 15 -62 15 l-63 0 0 -135z"/>
</g>
</svg>
